<svg id="svg-logo" width="88" height="114" data-name="Layer 1" xmlns="http://www.w3.org/2000/svg" viewBox="0 0 101.19 132.59">
        <defs>
          <style>.svg-logo-background{fill:#898c8a;}.svg-logo-foreground{fill:#fff;}.svg-logo-text{fill:#1d1d1b;}</style>
        </defs>
        <path class="svg-logo-background" d="M100.31,14.32V0H80.11V.34H71.9V0H42.15V.34h-1V0H26V.34H25V0H1.09V14.32h.35v1H1.09V82.74h.35v1H1.09V99.21H25v-.34h1v.34h36.2v-.34H73.09v.34h27.22V84.37H100V82.74h.35V63.24H100v-1h.35V31l-.35-.43V20.18h.35V15.35H100v-1Z"></path>
        <path class="svg-logo-foreground" d="M100.31,82.74h-28L74,63.24h26.29v-1H74.11L75.28,48.9H76A24.67,24.67,0,0,0,99.86,30.48l.45.56V20.18A23.81,23.81,0,0,0,99,15.35h1.34v-1H98.54A24.7,24.7,0,0,0,80.11,0H71.9A24.71,24.71,0,0,0,53.5,14.32H42.15V0h-1V14.32H26V0H25V14.32H1.09v1H25V82.74H1.1v1H25V99.21h1V83.78h8.51A42.59,42.59,0,0,0,62.23,99.21H73.09a42.63,42.63,0,0,0,27.22-14.84Zm-2.9-68.42H78.32L79.49.94A23.7,23.7,0,0,1,97.41,14.32M76,.69a22.08,22.08,0,0,1,2.45.13l-1.19,13.5H54.64A23.62,23.62,0,0,1,76,.69M57,39.85c-1,4.36-3.89,6.35-9.05,6.35H42.15V24a41.77,41.77,0,0,1,10-5.74A24.61,24.61,0,0,0,57,39.85M42.15,22.69V17.9h8.16a42.18,42.18,0,0,0-8.16,4.79M26,17.9h5.59V34A42.69,42.69,0,0,0,26,47.52ZM31.62,36V77.74a41.7,41.7,0,0,1,0-41.71M26,66.25a42.54,42.54,0,0,0,5.59,13.47v.47H26ZM67.67,98.52A41.54,41.54,0,0,1,35.88,83.78h35.3L69.89,98.46q-1.11.06-2.22.06m3.26-.12,1.28-14.62H99.45A41.57,41.57,0,0,1,70.93,98.4m2.14-36.19H70.22a26.29,26.29,0,0,1-.28,2.62c-1.28,9.54-6.43,15.36-14,15.36H42.15V50h5.66c8.11,0,9.53,3.17,9.53,9.81v.82h3.82V43.91a24.5,24.5,0,0,0,13.09,4.94Zm1.27-14.39A23.44,23.44,0,0,1,61.16,42.6V35.07H57.34v.82c0,.73,0,1.41-.09,2.06l-.07.52a23.52,23.52,0,0,1-4.75-14.19,23.19,23.19,0,0,1,.88-6.38h2.46c6.84,0,10.85,3.63,11.93,10.78a16.51,16.51,0,0,1,.15,2.68h4l-1.19-16a41.31,41.31,0,0,1,6.44,1Zm1.68.06h-.65l2.75-31.3A41.59,41.59,0,0,1,99,29.51,23.63,23.63,0,0,1,76,47.88m23.6-23.6a24.39,24.39,0,0,1-.33,3.95,42.6,42.6,0,0,0-21.08-12.7l0-.18H97.86a23.5,23.5,0,0,1,1.76,8.93"></path>
        <path class="svg-logo-text" d="M29.93,108.66a6.37,6.37,0,0,1-2.73.47H25.1v.74h2.37V120.7h0a4.31,4.31,0,0,0-3.85-2.87c-2.76,0-5.47,2.78-5.47,7.21s2.51,7.33,5.73,7.33c1.49,0,2.69-.84,3.59-2.6h0V132H32v-.73h-2ZM27.47,127.5c-.56,2.22-1.65,4.14-3.71,4.14s-2.84-1.5-2.84-4.67v-3.84c0-3,.95-4.54,2.82-4.54s3.15,2,3.73,4.42Zm20.36-9.24h4.38V119c-1.41,0-1.72.46-2.34,2.23-.45,1.29-4,11.37-4,11.37h-.3l-3.33-9.1L39,132.59h-.29l-5-13.6H32.13v-.73H38V119H36.53l3.3,9,2-5.6L40.58,119H38.91v-.73H45.3V119H43.39l3.31,9L49,121.38a4.24,4.24,0,0,0,.38-1.56c0-.56-.26-.83-1.06-.83h-.5Zm-32.66,7h.73l-.58,6.7H0v-.73H2.19V109.87H0v-.74H14.77l.38,5.19h-.76a4.12,4.12,0,0,0-.06-.67c-.43-2.8-2.14-3.78-4.29-3.78H5.18v10H7.32c2.83,0,3.46-1.78,3.46-3.74h.73v8h-.73c0-2.3-.51-3.57-3.49-3.57H5.18v10.62h4.9c2.79,0,4.55-2,5-5.33l.09-.64m73.77-16.59a6.37,6.37,0,0,1-2.73.47h-2.1v.74h2.37V120.7h0a4.32,4.32,0,0,0-3.86-2.87c-2.75,0-5.46,2.78-5.46,7.21s2.5,7.33,5.73,7.33c1.49,0,2.69-.84,3.59-2.6h0V132H91v-.73h-2ZM86.48,127.5c-.56,2.22-1.65,4.14-3.71,4.14s-2.84-1.5-2.84-4.67v-3.84c0-3,.95-4.54,2.82-4.54s3.15,2,3.73,4.42Zm14.71,0c0,3-1.59,4.9-4,4.9-2.19,0-3-1.25-3.4-1.25s-.54.23-.54.92h-.73v-4.85h.55c.29,2.78,2.23,4.45,3.9,4.45,1.87,0,3-1,3-3.06,0-1.66-1.22-2.52-3.2-2.63-2.57-.15-4-1.52-4-3.94s1.56-4.22,3.62-4.22a6.18,6.18,0,0,1,2.88.9c.26,0,.34-.2.34-.58a1.27,1.27,0,0,0,0-.36h.75v4.07h-.59c-.43-2.3-1.51-3.29-3.32-3.29A2.44,2.44,0,0,0,93.87,121a2.32,2.32,0,0,0,.47,1.48c.77.86,2,.77,3.56,1a3.74,3.74,0,0,1,3.29,4.1M63.3,131.22c-.59,0-.71-.74-.71-1.86v-7.11c0-3.11-2-4.42-4.66-4.42s-4.37,1.59-4.37,3.66a1.45,1.45,0,0,0,1.3,1.52,1.39,1.39,0,0,0,1.3-1.45c0-1.28-.79-1-.79-1.82,0-.66,1.05-1.17,2.5-1.17,1.64,0,2.26.79,2.26,2.48v3.2h-.41c-4.76,0-7,1.59-7,4.57a3.64,3.64,0,0,0,3.76,3.61,3.88,3.88,0,0,0,3.79-2.28,2.27,2.27,0,0,0,2.21,2.17c1.09,0,1.85-.59,2.66-1.79l-.58-.42c-.44.59-.84,1.11-1.24,1.11m-3.17-2.7c-.55,1.78-1.52,3-2.82,3s-2.05-1-2.05-3c0-2.45,1.13-3.58,4-3.58h.88ZM75.93,120a1.31,1.31,0,1,1-2.6,0,1.29,1.29,0,0,1,.82-1.34.51.51,0,0,0-.33-.11c-1.44,0-3.38,3.15-3.38,6.55v6.09h2V132H66v-.73h2V119H66v-.73h1.69a6.35,6.35,0,0,0,2.73-.48v3.49h0c.81-2,1.92-3.44,3.58-3.44A2,2,0,0,1,75.93,120"></path>
      </svg>
